<svg xmlns="http://www.w3.org/2000/svg" viewBox="0 0 1024 1024" version="1.1" width="1024" height="1024">
	<path d="M 444.13173870021575 213.021433975492 C 432.77412263808117 215.3995578596628, 421.1053741566331 225.09364728444342, 416.8668749369134 235.67236589815133 C 413.30479940532206 244.56282282077188, 413.47542075708714 258.4431170941805, 417.23967264742066 266 L 419.9793452948414 271.5 414.7884625682293 279 C 405.4026119216659 292.561061491206, 352.2755997854807 366.7516535491386, 321.1599222894018 409.75 L 316.637120823705 416 293.5685604118525 416.01186887538654 C 264.42190183174523 416.0268649589064, 257.8911532851127 417.57226814959756, 246.757538938773 427.0889914176884 C 222.3483932416866 447.95329276526024, 227.19155357196829 488.90165541454456, 255.78196992861854 503.3895158015559 C 261.09576784462143 506.082220985401, 261.127940292263 506.1422949558925, 262.53547963156996 516 C 265.2034222484786 534.6849423370555, 273.1850401856225 559.4319890688658, 283.0160139151676 579.5 C 314.1464634272875 643.046726731945, 370.97125097050946 689.2503950833602, 440.5 707.5486593669705 C 479.4969076585136 717.8116905956265, 527.0946273393332 718.8647800396183, 567.460975377488 710.3576439961818 C 668.3304823921035 689.0995748243904, 744.9986414017299 612.4230227871079, 761.5880600240782 516.2093078416465 L 763.3624078935624 505.91861568329307 770.1257228571044 502.3645942758037 C 778.6545384872093 497.8828285302605, 786.1273165395985 490.06434272859264, 790.2985488535933 481.25852735834223 C 793.3471515763162 474.82267562611594, 793.5 473.927078221617, 793.5 462.5 C 793.5 451.05363802184075, 793.3511395037291 450.18571329445757, 790.2734767397081 443.68789476566394 C 784.0040386383296 430.45133371794236, 770.9543742269581 419.9610859493369, 757.2007788970981 417.10170957281895 C 754.286207290502 416.49576930776857, 742.4966083664003 416.0000000000001, 731.001670176872 416.00000000000006 L 710.1017825595479 416 707.6983824283639 412.75 C 706.3765123562126 410.9625, 694.3615495518318 394.425, 680.9984650852954 376 C 667.635380618759 357.575, 653.7061278965438 338.45, 650.0445701470394 333.5 C 646.383012397535 328.55, 634.9156536990453 312.6829694579252, 624.5615508170621 298.2399321287226 L 605.7359092134564 271.97986425744523 608.6179546067282 265.7399321287226 C 612.9029402132876 256.4624865271008, 612.8137648261278 244.24891500564786, 608.3935120393735 235 C 596.6594035358605 210.44760957082576, 565.3201911633514 204.60514567017714, 546.4416233390536 223.45051786859437 C 529.1183688730183 240.74331153486736, 531.8164906379093 268.36313425954023, 552.1558479620437 281.94523561989814 C 561.5407043256898 288.2122020904756, 575.6551143312356 290.26377049996506, 584.3562340179517 286.6256505135925 C 586.4771627278251 285.73884589454536, 588.6011103931767 285.2534726652241, 589.0761177187328 285.547043337323 C 589.5511250442889 285.84061400942187, 603.1568206044473 304.6251263516556, 619.3109967413068 327.29040409784227 C 635.4651728781662 349.955681844029, 661.6707093415666 386.725, 677.5455222155299 409 C 699.9711978403258 440.46694883954336, 706.3341951141477 450.0575957506455, 706.0742424687608 452 C 704.7384333647431 461.9813613210501, 706.2625204666386 466.17053577650273, 712.8652383317569 470.6660371057305 C 723.3664873907865 477.81587753020415, 739 471.7962868993372, 739 460.60300326230754 C 739 456.8570791424084, 738.0617916270511 454.94695971664186, 732.0178066240918 446.38779949061166 L 725.0356132481836 436.5 734.2523413011297 436.20937059434976 C 744.5744548590687 435.88388526906243, 755.7710639861615 437.31313219625457, 759.9898803615648 439.4947669315859 C 767.9770805076981 443.62510864980806, 773.3501019289207 452.88042485376906, 773.2619770138986 462.3566618649828 C 773.1600316413538 473.31903853434375, 765.0531120550633 484.2929780432845, 755.0710126720617 486.9808782731733 C 752.4578156514482 487.6845391568159, 674.0668506038762 487.93351807143796, 510.3630626181599 487.75809947164726 L 269.5 487.5 264.8553966511279 484.7696127120118 C 255.94017709085745 479.5286910813419, 251.74563462580736 472.26935207988214, 251.69881208963085 462 C 251.64924784291193 451.1293222944682, 256.7223103313975 443.09840526594354, 266.24272090875553 438.9762495017708 C 272.81271828513826 436.1315662461908, 301.9832665749077 434.5408184556091, 300.4755525024242 437.1094419024744 C 300.02663103511367 437.87424885611347, 296.98019038136675 442.2170681637641, 293.7056843829866 446.76015147503136 C 286.4796773370845 456.7855879938763, 285.43883069784147 461.4601340905015, 289.19902686361564 467 C 296.261579793146 477.4052008149098, 313.7892068334524 475.48010910919015, 319.88779602274394 463.62939570592613 C 322.08742592068194 459.3550983718009, 322.2420060556347 458.3586825864786, 321.2702671893819 454.71805600750895 C 320.2096629678155 450.7444947423393, 320.30581833978033 450.4490417670683, 324.4136332141729 445.05955409114927 C 326.7442240235665 442.0017993410172, 333.1611895515103 432.975, 338.67355660960345 425 C 344.18592366769667 417.025, 358.51322951900596 396.55, 370.5120140569575 379.5 C 382.5107985949091 362.45, 402.21256143130176 334.325, 414.29370924894135 317 C 426.3748570665809 299.675, 436.3183678167253 285.42019241242366, 436.3903998048178 285.32264980538594 C 436.46243179291025 285.22510719834816, 438.99155946831866 285.99791656578935, 442.01068352794755 287.0400039552552 C 456.0744816738357 291.8942949371321, 473.6893343453514 286.7556733998439, 482.91496220847785 275.10736896166804 C 494.0373237034847 261.0642431508919, 494.4692346917336 243.71651102754046, 484.07272622900706 228.60570395050468 C 475.977489908422 216.8396812783803, 458.48774308083836 210.01549005979297, 444.13173870021575 213.021433975492 M 462.7900565985004 236.7178002400664 C 472.4413109064152 244.5292094479708, 472.47054494143674 258.0798956964486, 462.8516362102655 265.26144800254644 C 457.2985783356197 269.40740433710675, 447.0155088395931 268.7085372133685, 441.4314520031578 263.80567037383855 C 428.352295266899 252.32201866155546, 436.71273627460715 231.94058864621138, 453.8953229305545 233.4207286234208 C 457.87758502518625 233.7637680879679, 460.2071582414546 234.62728688650543, 462.7900565985004 236.7178002400664 M 580.2821186308964 234.37683899612875 C 588.0156971778027 237.68581508991542, 592.4929776084774 247.07351893328436, 590.1180623634284 255.0002795446447 C 586.4641469756323 267.19596216262624, 571.654393085442 271.90351989790173, 562.4275360457851 263.8022321177266 C 557.8879125741989 259.81638991827657, 556 256.08979254831394, 556 251.11475958805875 C 556 238.16562805132403, 568.6912287190172 229.4174301802107, 580.2821186308964 234.37683899612875 M 446.5 300.9161834328545 C 442.9539128962942 302.4500419839162, 445.10836691960355 299.5564457688729, 385.0114498911997 383.5 C 371.62373526886086 402.2, 360.0151838759679 419.15166175494977, 359.21466901810425 421.17035945544393 C 357.8914396447363 424.50721206599104, 357.92914173711694 425.1886988160193, 359.629593729176 428.67035945544393 C 363.50472120811054 436.6046492085002, 350.92515352134274 435.9996330185557, 511.5 435.97458936661553 C 595.3271799306345 435.9615154713988, 656.1551837781641 435.5700256660882, 658.5 435.02849549963764 C 668.4787392589121 432.7239275418064, 670.3175776922842 419.7206208498628, 661.3157414540892 415.11703996974734 C 659.7388510235179 414.3106108763792, 621.565279650768 413.99999999999994, 524.0333464895938 414 L 388.93521007100907 414 392.8501839533553 408.75 C 395.00341958864584 405.8625, 403.7131106131328 393.6, 412.2050528966598 381.5 C 420.6969951801869 369.4, 434.924834667154 349.2146004801521, 443.82247397880906 336.64355662256025 C 457.0217743506 317.9949040922242, 460 313.1652758109287, 460 310.40933316501946 C 460 304.0257007944034, 452.1206520440664 298.48497265088446, 446.5 300.9161834328545 M 740 511.69566558429176 C 740 515.3325833563891, 734.5722313403662 537.0353877958001, 731.34099605488 546.3184877872018 C 707.926023025438 613.5879735175122, 646.2794650137556 667.8776952545459, 572.049070764344 686.6006799793554 C 532.3024126623172 696.6259005110697, 491.24670027119237 697.2209244204076, 453.5 688.3188216806263 C 377.9668267527962 670.5052362896536, 315.6622752662619 615.7035515846026, 292.4787759887083 546.688168083909 C 289.2295306866528 537.0154302489304, 284 515.3311660177795, 284 511.5308987394267 C 284 510.2527630907499, 312.6380903333583 510.07311588024123, 512 510.1006509987709 C 718.1036229173336 510.1291172574254, 740 510.28229726100835, 740 511.69566558429176 M 507.38294129486667 543.5832878288071 C 505.6685590070433 544.4290490316781, 503.75605900704335 546.2399763490595, 503.13294129486667 547.6075707563211 C 502.3318652057314 549.3657412558654, 502 566.5910013716685, 502 606.4121943293247 C 502 661.6335395624062, 502.039833960783 662.7809232914265, 504.04548596139864 665.3306966302359 C 508.94047243401224 671.5536635247286, 519.240493406956 670.1933889057724, 521.6935577834124 663 C 522.556546025111 660.4693652138826, 522.902747887212 644.757405390323, 522.9435577834124 606.2702364445279 C 523.0066492865275 546.7696357201677, 522.9942659925774 546.6487551320723, 516.5211187239042 543.5770456302192 C 512.4316051381347 541.6364443712059, 511.32772050086777 541.6371984238798, 507.38294129486667 543.5832878288071 M 392.21256717400775 544.4676243157256 C 388.3039361965792 546.2121952155692, 386.03264987778374 550.9431235157039, 386.675952485902 556 C 390.1917853383999 583.6372771540896, 400.24870588341184 628.084874128023, 406.5489361058344 643.8306995322183 C 409.2253712995113 650.5197695784673, 417.04239636984585 653.1820015349347, 423.0694630663505 649.4570694640324 C 423.6934955899991 649.0713961543323, 424.77732303968503 647.3482800800477, 425.477968510097 645.6279226322888 C 426.6108685220477 642.846211973431, 426.3272471940943 640.8188643092778, 422.9155338204074 627.3114369851307 C 418.7529261885437 610.8311193535303, 412.0505833896206 579.1798267818398, 409.508973794284 564 C 408.6341344218399 558.775, 407.47366694512027 553.1036725123205, 406.93015717935145 551.3970500273789 C 404.8323954391644 544.8100711369641, 398.31757850506386 541.7427251955784, 392.21256717400775 544.4676243157256 M 620.7499780326038 544.0801110930449 C 617.8970268348352 545.7418018015487, 616.120925267539 550.2842251700467, 614.4565569395728 560.1756900662122 C 611.1728346760118 579.6910959730658, 604.892055403492 611.0560267808303, 601.5143199018587 624.8065824399766 C 597.2129307050286 642.3172760789726, 597.1050813835894 645.2661152166331, 600.646022726835 648.5477488994622 C 606.3221741773244 653.8082285242655, 614.7397930775433 650.8357754131188, 617.7724982459906 642.5 C 621.8597516936018 631.2656646777752, 629.1863500821322 600.0803933583828, 633.9565225668887 573.6135723943938 C 637.3411100688908 554.8345299721964, 637.5305386914025 552.2585116321096, 635.8053147355438 548.4720575044223 C 633.6854984500518 543.8195675497808, 625.3647702095976 541.3922427242541, 620.7499780326038 544.0801110930449" stroke="none" fill="#000000" fill-rule="evenodd" data-fill-layer-id="trace-color"/>
</svg>